name C:\Users\u0101727\Documents\MyRepositories\upper-imu-dc\Results\main_mocap_tracking\Case_5\kinematics.mot
datacolumns 15
datarows 37
range 0.50000000 0.86000000
endheader 
time	ground_thorax_rot_x	ground_thorax_rot_y	ground_thorax_rot_z	clav_prot	clav_elev	scapula_abduction	scapula_elevation	scapula_upward_rot	scapula_winging	plane_elv	shoulder_elv	axial_rot	elbow_flexion	pro_sup	
          0.50000000	          2.36819415	         -4.81012270	         -6.54150673	        -22.85263333	         -6.31439460	        -12.60432341	         -5.54553543	         12.80778653	          6.16371550	        -26.27048059	         11.94507110	         42.85168406	          0.28469641	         34.29170779	
          0.51000000	          2.28476117	         -4.84284382	         -6.92542979	        -22.84772719	         -6.26299353	        -12.68098909	         -5.47248204	         12.67953022	          6.17397439	        -25.90031898	         12.08796303	         42.47030145	          0.21759053	         34.29824566	
          0.52000000	          2.19804301	         -4.86411513	         -7.33838323	        -22.84440689	         -6.22305559	        -12.73073888	         -5.42036133	         12.59866566	          6.17787280	        -25.49239527	         12.20957937	         42.05687062	          0.18060692	         34.30181504	
          0.53000000	          2.11157886	         -4.87611897	         -7.75930309	        -22.84131880	         -6.20024560	        -12.76369309	         -5.38748565	         12.54094530	          6.18285636	        -25.03842518	         12.32613865	         41.58124230	          0.15713041	         34.30416180	
          0.54000000	          2.02829999	         -4.88082919	         -8.17295084	        -22.83646454	         -6.18968680	        -12.78623297	         -5.36601954	         12.49118715	          6.19054833	        -24.52726788	         12.44379080	         41.01584869	          0.14008142	         34.30599919	
          0.55000000	          1.95022105	         -4.88011739	         -8.56864446	        -22.82885107	         -6.18672570	        -12.80303095	         -5.34988364	         12.44009202	          6.20133915	        -23.95126419	         12.56525776	         40.34435698	          0.12565330	         34.30763131	
          0.56000000	          1.87857259	         -4.87572453	         -8.93918035	        -22.81833863	         -6.18824626	        -12.81721666	         -5.33544268	         12.38299529	          6.21514694	        -23.30834001	         12.69087467	         39.56627518	          0.11162509	         34.30924230	
          0.57000000	          1.81399096	         -4.86918430	         -9.27996743	        -22.80548854	         -6.19251815	        -12.83071781	         -5.32112688	         12.31888464	          6.23157567	        -22.60222227	         12.81900764	         38.69825687	          0.09684864	         34.31092574	
          0.58000000	          1.75669633	         -4.86176371	         -9.58834982	        -22.79127614	         -6.19882035	        -12.84447118	         -5.30684705	         12.24932863	          6.25001322	        -21.84107528	         12.94664029	         37.77129485	          0.08091279	         34.31271304	
          0.59000000	          1.70664307	         -4.85443651	         -9.86308987	        -22.77679439	         -6.20708134	        -12.85863281	         -5.29341171	         12.17737038	          6.26974684	        -21.03522705	         13.07016409	         36.82467841	          0.06391065	         34.31459548	
          0.60000000	          1.66363634	         -4.84789582	        -10.10398506	        -22.76300875	         -6.21757669	        -12.87280494	         -5.28201556	         12.10651790	          6.29007992	        -20.19468651	         13.18622192	         35.89837819	          0.04626777	         34.31653190	
          0.61000000	          1.62741283	         -4.84260026	        -10.31159145	        -22.75060942	         -6.23071264	        -12.88630100	         -5.27384660	         12.03991924	          6.31044139	        -19.32694983	         13.29248794	         35.02520492	          0.02858533	         34.31845839	
          0.62000000	          1.59769281	         -4.83882908	        -10.48702143	        -22.74001406	         -6.24688321	        -12.89845529	         -5.26984723	         11.97987823	          6.33044812	        -18.43581084	         13.38819977	         34.22465487	          0.01150535	         34.32030734	
          0.63000000	          1.57421450	         -4.83672614	        -10.63178794	        -22.73147997	         -6.26635940	        -12.90889228	         -5.27060820	         11.92775782	          6.34989139	        -17.52144862	         13.47432150	         33.50007989	         -0.00435948	         34.32201772	
          0.64000000	          1.55675333	         -4.83633711	        -10.74768448	        -22.72523570	         -6.28921360	        -12.91769094	         -5.27635188	         11.88411348	          6.36868237	        -16.58116916	         13.55340711	         32.83906592	         -0.01844701	         34.32353277	
          0.65000000	          1.54512245	         -4.83765242	        -10.83669777	        -22.72155511	         -6.31532667	        -12.92540441	         -5.28698939	         11.84887605	          6.38681393	        -15.61018735	         13.62931999	         32.21603580	         -0.03026933	         34.32480283	
          0.66000000	          1.53915486	         -4.84065992	        -10.90094687	        -22.72070340	         -6.34448604	        -12.93286165	         -5.30223079	         11.82149558	          6.40435996	        -14.60234569	         13.70690402	         31.59655973	         -0.03943754	         34.32579364	
          0.67000000	          1.53867187	         -4.84540530	        -10.94264259	        -22.72273773	         -6.37650877	        -12.94073332	         -5.32169688	         11.80105080	          6.42148575	        -13.55083515	         13.79159962	         30.94294901	         -0.04566922	         34.32648675	
          0.68000000	          1.54344587	         -4.85205424	        -10.96406125	        -22.72722638	         -6.41130070	        -12.94897072	         -5.34497815	         11.78636228	          6.43843013	        -12.44886092	         13.88899918	         30.21988543	         -0.04880583	         34.32687287	
          0.69000000	          1.55316860	         -4.86094007	        -10.96752301	        -22.73298433	         -6.44881730	        -12.95630106	         -5.37161617	         11.77609617	          6.45545376	        -11.29015566	         14.00444307	         29.39839948	         -0.04886477	         34.32695133	
          0.70000000	          1.56743391	         -4.87257438	        -10.95536229	        -22.73792931	         -6.48895653	        -12.95995134	         -5.40103730	         11.76885850	          6.47276925	        -10.06949621	         14.14273437	         28.45760575	         -0.04608915	         34.32673781	
          0.71000000	          1.58573593	         -4.88761047	        -10.92988546	        -22.73914881	         -6.53142539	        -12.95569942	         -5.43249819	         11.76336339	          6.49045169	         -8.78349390	         14.30788215	         27.38504515	         -0.04094468	         34.32626870	
          0.72000000	          1.60747653	         -4.90677233	        -10.89332238	        -22.73318529	         -6.57561141	        -12.93824081	         -5.46507570	         11.75870454	          6.50833309	         -7.43148765	         14.50277178	         26.17655653	         -0.03406588	         34.32559805	
          0.73000000	          1.63197417	         -4.93077260	        -10.84778228	        -22.71645838	         -6.62051101	        -12.90178359	         -5.49770576	         11.75461465	          6.52592379	         -6.01597548	         14.72882193	         24.83596744	         -0.02619241	         34.32479342	
          0.74000000	          1.65847270	         -4.96023065	        -10.79521729	        -22.68573671	         -6.66478615	        -12.84078083	         -5.52928640	         11.75158062	          6.54241730	         -4.54231288	         14.98577078	         23.37479697	         -0.01811336	         34.32393299	
          0.75000000	          1.68615638	         -4.99558748	        -10.73738873	        -22.63858874	         -6.70695210	        -12.75068084	         -5.55884195	         11.75081090	          6.55678179	         -3.01801655	         15.27164817	         21.81222130	         -0.01058681	         34.32309822	
          0.76000000	          1.71417891	         -5.03702021	        -10.67583439	        -22.57372639	         -6.74559899	        -12.62854037	         -5.58568168	         11.75410768	          6.56788938	         -1.45201138	         15.58292498	         20.17489313	         -0.00422092	         34.32235961	
          0.77000000	          1.74170471	         -5.08437617	        -10.61184590	        -22.49119099	         -6.77957174	        -12.47343449	         -5.60948987	         11.76363871	          6.57465608	          0.14629097	         15.91486833	         18.49562121	          0.00062531	         34.32176413	
          0.78000000	          1.76795432	         -5.13714734	        -10.54646657	        -22.39237427	         -6.80809947	        -12.28664873	         -5.63034145	         11.78161502	          6.57618713	          1.76808751	         16.26210280	         16.81060753	          0.00388188	         34.32133149	
          0.79000000	          1.79224692	         -5.19449085	        -10.48051112	        -22.27985957	         -6.83085767	        -12.07159964	         -5.64864442	         11.80993117	          6.57190368	          3.40616988	         16.61929525	         15.15584568	          0.00575262	         34.32105519	
          0.80000000	          1.81403268	         -5.25529457	        -10.41460468	        -22.15708751	         -6.84798292	        -11.83346647	         -5.66503343	         11.84980074	          6.56164363	          5.05557939	         16.98189791	         13.56334844	          0.00663725	         34.32090670	
          0.81000000	          1.83290719	         -5.31827837	        -10.34923523	        -22.02790257	         -6.86011417	        -11.57857743	         -5.68029338	         11.90145309	          6.54574528	          6.71359631	         17.34686059	         12.05793954	          0.00702080	         34.32084395	
          0.82000000	          1.84860895	         -5.38210827	        -10.28480765	        -21.89606415	         -6.86847758	        -11.31362816	         -5.69536062	         11.96400089	          6.52509299	          8.37879318	         17.71314357	         10.65536344	          0.00739898	         34.32081871	
          0.83000000	          1.86100648	         -5.44550144	        -10.22168949	        -21.76482174	         -6.87495290	        -11.04490202	         -5.71136669	         12.03550488	          6.50109855	         10.04954223	         18.08191214	          9.36181299	          0.00824811	         34.32077962	
          0.84000000	          1.87007997	         -5.50731330	        -10.16024674	        -21.63665764	         -6.88204752	        -10.77771295	         -5.72966114	         12.11318952	          6.47561043	         11.72278651	         18.45639293	          8.17440477	          0.00998941	         34.32067605	
          0.85000000	          1.87590085	         -5.56660302	        -10.10087034	        -21.51325663	         -6.89272768	        -10.51620441	         -5.75176786	         12.19377303	          6.45075184	         13.39363059	         18.84142100	          7.08215055	          0.01292416	         34.32046590	
          0.86000000	          1.87861291	         -5.62267360	        -10.04399186	        -21.39568022	         -6.91009702	        -10.26347734	         -5.77926085	         12.27389546	          6.42869410	         15.05580469	         19.24273849	          6.06721392	          0.01716360	         34.32012500	
